<svg width="200" height="200" fill="none" xmlns="http://www.w3.org/2000/svg"><path fill="#2C6269" d="M100 100h100V0H100z"/><path d="M100 100h100V0H100z"/><mask id="a" fill="#fff"><path d="M100 0c55.229 0 100 44.772 100 100 0 55.229-44.771 100-100 100C44.772 200 0 155.229 0 100 0 44.772 44.772 0 100 0Zm0 67c18.225 0 33 14.775 33 33s-14.775 33-33 33-33-14.775-33-33 14.775-33 33-33Z" clip-rule="evenodd" fill-rule="evenodd"/></mask><path d="M100 0c55.229 0 100 44.772 100 100 0 55.229-44.771 100-100 100C44.772 200 0 155.229 0 100 0 44.772 44.772 0 100 0Zm0 67c18.225 0 33 14.775 33 33s-14.775 33-33 33-33-14.775-33-33 14.775-33 33-33Z" clip-rule="evenodd" fill="#012F34" fill-rule="evenodd" mask="url(#a)"/><mask id="b" fill="#fff"><path d="M100 56h100v4H100v-4Zm0 8h100v4H100v-4Zm100 8H100v4h100v-4Zm-100 8h100v4H100v-4Zm100 8H100v4h100v-4Zm-100 8h100v4H100v-4Z" clip-rule="evenodd" fill-rule="evenodd"/></mask><path d="M100 56h100v4H100v-4Zm0 8h100v4H100v-4Zm100 8H100v4h100v-4Zm-100 8h100v4H100v-4Zm100 8H100v4h100v-4Zm-100 8h100v4H100v-4Z" clip-rule="evenodd" fill="#79C8C7" fill-rule="evenodd" mask="url(#b)"/><mask id="c" fill="#fff"><path d="M200 100h-4v4h4v-4Zm-7 0h-4v4h4v-4Zm-7 0h-4v4h4v-4Zm-7 0h-4v4h4v-4Zm-7 0h-4v4h4v-4Zm-7 0h-4v4h4v-4Zm-7 0h-4v4h4v-4Zm-7 0h-4v4h4v-4Zm49 8h-4v4h4v-4Zm-7 0h-4v4h4v-4Zm-7 0h-4v4h4v-4Zm-7 0h-4v4h4v-4Zm-7 0h-4v4h4v-4Zm-7 0h-4v4h4v-4Zm-7 0h-4v4h4v-4Zm-7 0h-4v4h4v-4Zm49 8h-4v4h4v-4Zm-7 0h-4v4h4v-4Zm-7 0h-4v4h4v-4Zm-7 0h-4v4h4v-4Zm-7 0h-4v4h4v-4Zm-7 0h-4v4h4v-4Zm-7 0h-4v4h4v-4Zm-7 0h-4v4h4v-4Zm49 8h-4v4h4v-4Zm-7 0h-4v4h4v-4Zm-7 0h-4v4h4v-4Zm-7 0h-4v4h4v-4Zm-7 0h-4v4h4v-4Zm-7 0h-4v4h4v-4Zm-7 0h-4v4h4v-4Zm-7 0h-4v4h4v-4Zm49 8h-4v4h4v-4Zm-7 0h-4v4h4v-4Zm-7 0h-4v4h4v-4Zm-7 0h-4v4h4v-4Zm-7 0h-4v4h4v-4Zm-7 0h-4v4h4v-4Zm-7 0h-4v4h4v-4Zm-7 0h-4v4h4v-4Zm49 8h-4v4h4v-4Zm-7 0h-4v4h4v-4Zm-7 0h-4v4h4v-4Zm-7 0h-4v4h4v-4Zm-7 0h-4v4h4v-4Zm-7 0h-4v4h4v-4Zm-7 0h-4v4h4v-4Zm-7 0h-4v4h4v-4Z" clip-rule="evenodd" fill-rule="evenodd"/></mask><path d="M200 100h-4v4h4v-4Zm-7 0h-4v4h4v-4Zm-7 0h-4v4h4v-4Zm-7 0h-4v4h4v-4Zm-7 0h-4v4h4v-4Zm-7 0h-4v4h4v-4Zm-7 0h-4v4h4v-4Zm-7 0h-4v4h4v-4Zm49 8h-4v4h4v-4Zm-7 0h-4v4h4v-4Zm-7 0h-4v4h4v-4Zm-7 0h-4v4h4v-4Zm-7 0h-4v4h4v-4Zm-7 0h-4v4h4v-4Zm-7 0h-4v4h4v-4Zm-7 0h-4v4h4v-4Zm49 8h-4v4h4v-4Zm-7 0h-4v4h4v-4Zm-7 0h-4v4h4v-4Zm-7 0h-4v4h4v-4Zm-7 0h-4v4h4v-4Zm-7 0h-4v4h4v-4Zm-7 0h-4v4h4v-4Zm-7 0h-4v4h4v-4Zm49 8h-4v4h4v-4Zm-7 0h-4v4h4v-4Zm-7 0h-4v4h4v-4Zm-7 0h-4v4h4v-4Zm-7 0h-4v4h4v-4Zm-7 0h-4v4h4v-4Zm-7 0h-4v4h4v-4Zm-7 0h-4v4h4v-4Zm49 8h-4v4h4v-4Zm-7 0h-4v4h4v-4Zm-7 0h-4v4h4v-4Zm-7 0h-4v4h4v-4Zm-7 0h-4v4h4v-4Zm-7 0h-4v4h4v-4Zm-7 0h-4v4h4v-4Zm-7 0h-4v4h4v-4Zm49 8h-4v4h4v-4Zm-7 0h-4v4h4v-4Zm-7 0h-4v4h4v-4Zm-7 0h-4v4h4v-4Zm-7 0h-4v4h4v-4Zm-7 0h-4v4h4v-4Zm-7 0h-4v4h4v-4Zm-7 0h-4v4h4v-4Z" clip-rule="evenodd" fill="#F67E7E" fill-rule="evenodd" mask="url(#c)"/></svg>