<svg width="200" height="200" fill="none" xmlns="http://www.w3.org/2000/svg"><path fill="#2C6269" d="M100 100H0V0h100z"/><path d="M100 100H0V0h100z"/><mask id="a" fill="#fff"><path d="M100 0C44.772 0 0 44.772 0 100c0 55.229 44.772 100 100 100 55.229 0 100-44.771 100-100C200 44.772 155.229 0 100 0Zm0 67c-18.226 0-33 14.775-33 33s14.774 33 33 33 33-14.775 33-33-14.774-33-33-33Z" clip-rule="evenodd" fill-rule="evenodd"/></mask><path d="M100 0C44.772 0 0 44.772 0 100c0 55.229 44.772 100 100 100 55.229 0 100-44.771 100-100C200 44.772 155.229 0 100 0Zm0 67c-18.226 0-33 14.775-33 33s14.774 33 33 33 33-14.775 33-33-14.774-33-33-33Z" clip-rule="evenodd" fill="#F67E7E" fill-rule="evenodd" mask="url(#a)"/><mask id="b" fill="#fff"><path d="M100 0H0v4h100V0Zm0 8H0v4h100V8ZM0 16h100v4H0v-4Zm100 8H0v4h100v-4ZM0 32h100v4H0v-4Zm100 8H0v4h100v-4Z" clip-rule="evenodd" fill-rule="evenodd"/></mask><path d="M100 0H0v4h100V0Zm0 8H0v4h100V8ZM0 16h100v4H0v-4Zm100 8H0v4h100v-4ZM0 32h100v4H0v-4Zm100 8H0v4h100v-4Z" clip-rule="evenodd" fill="#79C8C7" fill-rule="evenodd" mask="url(#b)"/></svg>