<svg width="200.000000" height="200.000000" viewBox="0 0 200 200" fill="none" xmlns="http://www.w3.org/2000/svg" xmlns:xlink="http://www.w3.org/1999/xlink">
	<desc>
			Created with Pixso.
	</desc>
	<defs/>
	<rect id="Rectangle" x="100.000000" y="100.000000" width="100.000000" height="100.000000" transform="rotate(180 100.000000 100.000000)" fill="#2C6269" fill-opacity="1.000000"/>
	<rect id="Rectangle" x="100.000000" y="100.000000" width="100.000000" height="100.000000" transform="rotate(180 100.000000 100.000000)" stroke="#979797" stroke-opacity="0" stroke-width="0.000000"/>
	<mask id="mask_0_3935" fill="white">
		<path id="Combined Shape Copy" d="M100 0C44.7715 0 0 44.7715 0 100C0 155.228 44.7715 200 100 200C155.229 200 200 155.228 200 100C200 44.7715 155.229 0 100 0ZM100 67C81.7747 67 67 81.7746 67 100C67 118.225 81.7747 133 100 133C118.225 133 133 118.225 133 100C133 81.7746 118.225 67 100 67Z" clip-rule="evenodd" fill="" fill-opacity="1.000000" fill-rule="evenodd"/>
	</mask>
	<path id="Combined Shape Copy" d="M100 0C44.7715 0 0 44.7715 0 100C0 155.228 44.7715 200 100 200C155.229 200 200 155.228 200 100C200 44.7715 155.229 0 100 0ZM100 67C81.7747 67 67 81.7746 67 100C67 118.225 81.7747 133 100 133C118.225 133 133 118.225 133 100C133 81.7746 118.225 67 100 67Z" clip-rule="evenodd" fill="#014E56" fill-opacity="1.000000" fill-rule="evenodd" mask="url(#mask_0_3935)"/>
	<path id="Combined Shape Copy" d="" fill="#979797" fill-opacity="0.000000" fill-rule="nonzero"/>
	<mask id="mask_0_3938" fill="white">
		<path id="Combined Shape" d="M100 100L0 100L0 104L100 104L100 100ZM100 108L0 108L0 112L100 112L100 108ZM0 116L100 116L100 120L0 120L0 116ZM100 124L0 124L0 128L100 128L100 124ZM0 132L100 132L100 136L0 136L0 132ZM100 140L0 140L0 144L100 144L100 140Z" clip-rule="evenodd" fill="" fill-opacity="1.000000" fill-rule="evenodd"/>
	</mask>
	<path id="Combined Shape" d="M100 100L0 100L0 104L100 104L100 100ZM100 108L0 108L0 112L100 112L100 108ZM0 116L100 116L100 120L0 120L0 116ZM100 124L0 124L0 128L100 128L100 124ZM0 132L100 132L100 136L0 136L0 132ZM100 140L0 140L0 144L100 144L100 140Z" clip-rule="evenodd" fill="#79C8C7" fill-opacity="1.000000" fill-rule="evenodd" mask="url(#mask_0_3938)"/>
	<path id="Combined Shape" d="" fill="#979797" fill-opacity="0.000000" fill-rule="nonzero"/>
	<mask id="mask_0_3945" fill="white">
		<path id="Combined Shape" d="M0 0L4 0L4 4L0 4L0 0ZM7 0L11 0L11 4L7 4L7 0ZM14 0L18 0L18 4L14 4L14 0ZM21 0L25 0L25 4L21 4L21 0ZM28 0L32 0L32 4L28 4L28 0ZM35 0L39 0L39 4L35 4L35 0ZM42 0L46 0L46 4L42 4L42 0ZM49 0L53 0L53 4L49 4L49 0ZM0 8L4 8L4 12L0 12L0 8ZM7 8L11 8L11 12L7 12L7 8ZM14 8L18 8L18 12L14 12L14 8ZM21 8L25 8L25 12L21 12L21 8ZM28 8L32 8L32 12L28 12L28 8ZM35 8L39 8L39 12L35 12L35 8ZM42 8L46 8L46 12L42 12L42 8ZM49 8L53 8L53 12L49 12L49 8ZM0 16L4 16L4 20L0 20L0 16ZM7 16L11 16L11 20L7 20L7 16ZM14 16L18 16L18 20L14 20L14 16ZM21 16L25 16L25 20L21 20L21 16ZM28 16L32 16L32 20L28 20L28 16ZM35 16L39 16L39 20L35 20L35 16ZM42 16L46 16L46 20L42 20L42 16ZM49 16L53 16L53 20L49 20L49 16ZM0 24L4 24L4 28L0 28L0 24ZM7 24L11 24L11 28L7 28L7 24ZM14 24L18 24L18 28L14 28L14 24ZM21 24L25 24L25 28L21 28L21 24ZM28 24L32 24L32 28L28 28L28 24ZM35 24L39 24L39 28L35 28L35 24ZM42 24L46 24L46 28L42 28L42 24ZM49 24L53 24L53 28L49 28L49 24ZM0 32L4 32L4 36L0 36L0 32ZM7 32L11 32L11 36L7 36L7 32ZM14 32L18 32L18 36L14 36L14 32ZM21 32L25 32L25 36L21 36L21 32ZM28 32L32 32L32 36L28 36L28 32ZM35 32L39 32L39 36L35 36L35 32ZM42 32L46 32L46 36L42 36L42 32ZM49 32L53 32L53 36L49 36L49 32ZM0 40L4 40L4 44L0 44L0 40ZM7 40L11 40L11 44L7 44L7 40ZM14 40L18 40L18 44L14 44L14 40ZM21 40L25 40L25 44L21 44L21 40ZM28 40L32 40L32 44L28 44L28 40ZM35 40L39 40L39 44L35 44L35 40ZM42 40L46 40L46 44L42 44L42 40ZM49 40L53 40L53 44L49 44L49 40Z" clip-rule="evenodd" fill="" fill-opacity="1.000000" fill-rule="evenodd"/>
	</mask>
	<path id="Combined Shape" d="M0 0L4 0L4 4L0 4L0 0ZM7 0L11 0L11 4L7 4L7 0ZM14 0L18 0L18 4L14 4L14 0ZM21 0L25 0L25 4L21 4L21 0ZM28 0L32 0L32 4L28 4L28 0ZM35 0L39 0L39 4L35 4L35 0ZM42 0L46 0L46 4L42 4L42 0ZM49 0L53 0L53 4L49 4L49 0ZM0 8L4 8L4 12L0 12L0 8ZM7 8L11 8L11 12L7 12L7 8ZM14 8L18 8L18 12L14 12L14 8ZM21 8L25 8L25 12L21 12L21 8ZM28 8L32 8L32 12L28 12L28 8ZM35 8L39 8L39 12L35 12L35 8ZM42 8L46 8L46 12L42 12L42 8ZM49 8L53 8L53 12L49 12L49 8ZM0 16L4 16L4 20L0 20L0 16ZM7 16L11 16L11 20L7 20L7 16ZM14 16L18 16L18 20L14 20L14 16ZM21 16L25 16L25 20L21 20L21 16ZM28 16L32 16L32 20L28 20L28 16ZM35 16L39 16L39 20L35 20L35 16ZM42 16L46 16L46 20L42 20L42 16ZM49 16L53 16L53 20L49 20L49 16ZM0 24L4 24L4 28L0 28L0 24ZM7 24L11 24L11 28L7 28L7 24ZM14 24L18 24L18 28L14 28L14 24ZM21 24L25 24L25 28L21 28L21 24ZM28 24L32 24L32 28L28 28L28 24ZM35 24L39 24L39 28L35 28L35 24ZM42 24L46 24L46 28L42 28L42 24ZM49 24L53 24L53 28L49 28L49 24ZM0 32L4 32L4 36L0 36L0 32ZM7 32L11 32L11 36L7 36L7 32ZM14 32L18 32L18 36L14 36L14 32ZM21 32L25 32L25 36L21 36L21 32ZM28 32L32 32L32 36L28 36L28 32ZM35 32L39 32L39 36L35 36L35 32ZM42 32L46 32L46 36L42 36L42 32ZM49 32L53 32L53 36L49 36L49 32ZM0 40L4 40L4 44L0 44L0 40ZM7 40L11 40L11 44L7 44L7 40ZM14 40L18 40L18 44L14 44L14 40ZM21 40L25 40L25 44L21 44L21 40ZM28 40L32 40L32 44L28 44L28 40ZM35 40L39 40L39 44L35 44L35 40ZM42 40L46 40L46 44L42 44L42 40ZM49 40L53 40L53 44L49 44L49 40Z" clip-rule="evenodd" fill="#79C8C7" fill-opacity="1.000000" fill-rule="evenodd" mask="url(#mask_0_3945)"/>
	<path id="Combined Shape" d="" fill="#979797" fill-opacity="0.000000" fill-rule="nonzero"/>
</svg>
