<svg width="67" height="56" fill="none" xmlns="http://www.w3.org/2000/svg"><path d="M26.463 52.033C23.641 54.678 19.911 56 15.273 56c-4.738 0-8.468-1.475-11.19-4.425l-.125-.138Q0 47.025 0 39.063q0-5.494 2.57-12.513 2.571-7.019 6.881-14.038Q13.761 5.493 19.356 0H31q-2.57 6.104-3.932 11.139-1.36 5.035-1.36 9.155 0 4.73 1.209 8.087a197.593 197.593 0 0 0 2.495 6.562q1.286 3.204 1.286 7.63 0 2.272-.725 4.284-1.027 2.85-3.51 5.176ZM51.273 56c4.638 0 8.368-1.322 11.19-3.967q2.483-2.326 3.51-5.176.725-2.012.725-4.285c0-2.95-.429-5.493-1.286-7.63q-1.285-3.204-2.495-6.56-1.21-3.358-1.21-8.088c0-2.746.454-5.798 1.361-9.155Q64.43 6.104 67 0H55.356q-5.595 5.493-9.905 12.512-4.31 7.02-6.88 14.038Q36 33.57 36 39.063q0 7.962 3.958 12.374l.024.027q.05.056.101.11 1.028 1.115 2.248 1.949Q45.955 56 51.273 56Z" clip-rule="evenodd" fill="#2C6269" fill-rule="evenodd"/></svg>