<svg width="200" height="225" fill="none" xmlns="http://www.w3.org/2000/svg"><mask id="a" fill="#fff"><path d="M0 100c0 55.228 44.772 100 100 100 55.229 0 100-44.772 100-100S155.229 0 100 0C44.772 0 0 44.772 0 100Zm67 0c0 18.225 14.774 33 33 33s33-14.775 33-33-14.774-33-33-33-33 14.775-33 33Z" clip-rule="evenodd" fill-rule="evenodd"/></mask><path d="M0 100c0 55.228 44.772 100 100 100 55.229 0 100-44.772 100-100S155.229 0 100 0C44.772 0 0 44.772 0 100Zm67 0c0 18.225 14.774 33 33 33s33-14.775 33-33-14.774-33-33-33-33 14.775-33 33Z" clip-rule="evenodd" fill="#012F34" fill-rule="evenodd" mask="url(#a)"/><path fill="#79C8C7" d="M43 0v43H0V0z"/><path d="M43 0v43H0V0z"/><mask id="b" fill="#fff"><path d="M0 124.487c0 55.228 44.772 100 100 100 55.229 0 100-44.772 100-100 0-55.229-44.771-100-100-100-55.228 0-100 44.771-100 100Zm67 0c0 18.225 14.774 33 33 33s33-14.775 33-33c0-18.226-14.774-33-33-33s-33 14.774-33 33Z" clip-rule="evenodd" fill-rule="evenodd"/></mask><path d="M0 124.487c0 55.228 44.772 100 100 100 55.229 0 100-44.772 100-100 0-55.229-44.771-100-100-100-55.228 0-100 44.771-100 100Zm67 0c0 18.225 14.774 33 33 33s33-14.775 33-33c0-18.226-14.774-33-33-33s-33 14.774-33 33Z" clip-rule="evenodd" fill="#F67E7E" fill-rule="evenodd" mask="url(#b)"/></svg>