<svg width="200" height="244" fill="none" xmlns="http://www.w3.org/2000/svg"><path fill="#2C6269" d="M100 144H0V44h100z"/><path d="M100 144H0V44h100z"/><mask id="a" fill="#fff"><path d="M100 44C44.772 44 0 88.772 0 144s44.772 100 100 100c55.229 0 100-44.772 100-100S155.229 44 100 44Zm0 67c-18.225 0-33 14.775-33 33s14.775 33 33 33 33-14.775 33-33-14.775-33-33-33Z" clip-rule="evenodd" fill-rule="evenodd"/></mask><path d="M100 44C44.772 44 0 88.772 0 144s44.772 100 100 100c55.229 0 100-44.772 100-100S155.229 44 100 44Zm0 67c-18.225 0-33 14.775-33 33s14.775 33 33 33 33-14.775 33-33-14.775-33-33-33Z" clip-rule="evenodd" fill="#014E56" fill-rule="evenodd" mask="url(#a)"/><mask id="b" fill="#fff"><path d="M100 144H0v4h100v-4Zm0 8H0v4h100v-4ZM0 160h100v4H0v-4Zm100 8H0v4h100v-4ZM0 176h100v4H0v-4Zm100 8H0v4h100v-4Z" clip-rule="evenodd" fill-rule="evenodd"/></mask><path d="M100 144H0v4h100v-4Zm0 8H0v4h100v-4ZM0 160h100v4H0v-4Zm100 8H0v4h100v-4ZM0 176h100v4H0v-4Zm100 8H0v4h100v-4Z" clip-rule="evenodd" fill="#79C8C7" fill-rule="evenodd" mask="url(#b)"/><mask id="c" fill="#fff"><path d="M0 0h4v4H0V0Zm7 0h4v4H7V0Zm7 0h4v4h-4V0Zm7 0h4v4h-4V0Zm7 0h4v4h-4V0Zm7 0h4v4h-4V0Zm7 0h4v4h-4V0Zm7 0h4v4h-4V0ZM0 8h4v4H0V8Zm7 0h4v4H7V8Zm7 0h4v4h-4V8Zm7 0h4v4h-4V8Zm7 0h4v4h-4V8Zm7 0h4v4h-4V8Zm7 0h4v4h-4V8Zm7 0h4v4h-4V8ZM0 16h4v4H0v-4Zm7 0h4v4H7v-4Zm7 0h4v4h-4v-4Zm7 0h4v4h-4v-4Zm7 0h4v4h-4v-4Zm7 0h4v4h-4v-4Zm7 0h4v4h-4v-4Zm7 0h4v4h-4v-4ZM0 24h4v4H0v-4Zm7 0h4v4H7v-4Zm7 0h4v4h-4v-4Zm7 0h4v4h-4v-4Zm7 0h4v4h-4v-4Zm7 0h4v4h-4v-4Zm7 0h4v4h-4v-4Zm7 0h4v4h-4v-4ZM0 32h4v4H0v-4Zm7 0h4v4H7v-4Zm7 0h4v4h-4v-4Zm7 0h4v4h-4v-4Zm7 0h4v4h-4v-4Zm7 0h4v4h-4v-4Zm7 0h4v4h-4v-4Zm7 0h4v4h-4v-4ZM0 40h4v4H0v-4Zm7 0h4v4H7v-4Zm7 0h4v4h-4v-4Zm7 0h4v4h-4v-4Zm7 0h4v4h-4v-4Zm7 0h4v4h-4v-4Zm7 0h4v4h-4v-4Zm7 0h4v4h-4v-4Z" clip-rule="evenodd" fill-rule="evenodd"/></mask><path d="M0 0h4v4H0V0Zm7 0h4v4H7V0Zm7 0h4v4h-4V0Zm7 0h4v4h-4V0Zm7 0h4v4h-4V0Zm7 0h4v4h-4V0Zm7 0h4v4h-4V0Zm7 0h4v4h-4V0ZM0 8h4v4H0V8Zm7 0h4v4H7V8Zm7 0h4v4h-4V8Zm7 0h4v4h-4V8Zm7 0h4v4h-4V8Zm7 0h4v4h-4V8Zm7 0h4v4h-4V8Zm7 0h4v4h-4V8ZM0 16h4v4H0v-4Zm7 0h4v4H7v-4Zm7 0h4v4h-4v-4Zm7 0h4v4h-4v-4Zm7 0h4v4h-4v-4Zm7 0h4v4h-4v-4Zm7 0h4v4h-4v-4Zm7 0h4v4h-4v-4ZM0 24h4v4H0v-4Zm7 0h4v4H7v-4Zm7 0h4v4h-4v-4Zm7 0h4v4h-4v-4Zm7 0h4v4h-4v-4Zm7 0h4v4h-4v-4Zm7 0h4v4h-4v-4Zm7 0h4v4h-4v-4ZM0 32h4v4H0v-4Zm7 0h4v4H7v-4Zm7 0h4v4h-4v-4Zm7 0h4v4h-4v-4Zm7 0h4v4h-4v-4Zm7 0h4v4h-4v-4Zm7 0h4v4h-4v-4Zm7 0h4v4h-4v-4ZM0 40h4v4H0v-4Zm7 0h4v4H7v-4Zm7 0h4v4h-4v-4Zm7 0h4v4h-4v-4Zm7 0h4v4h-4v-4Zm7 0h4v4h-4v-4Zm7 0h4v4h-4v-4Zm7 0h4v4h-4v-4Z" clip-rule="evenodd" fill="#79C8C7" fill-rule="evenodd" mask="url(#c)"/></svg>