<svg width="358" height="200" fill="none" xmlns="http://www.w3.org/2000/svg"><circle cx="100" cy="100" r="100" fill="#2C6269"/><circle cx="100" cy="100" r="100"/><mask id="a" fill="#fff"><path d="M258 0c-55.229 0-100 44.772-100 100 0 55.229 44.771 100 100 100s100-44.771 100-100C358 44.772 313.229 0 258 0Zm0 67c-18.225 0-33 14.775-33 33s14.775 33 33 33 33-14.775 33-33-14.775-33-33-33Z" clip-rule="evenodd" fill-rule="evenodd"/></mask><path d="M258 0c-55.229 0-100 44.772-100 100 0 55.229 44.771 100 100 100s100-44.771 100-100C358 44.772 313.229 0 258 0Zm0 67c-18.225 0-33 14.775-33 33s14.775 33 33 33 33-14.775 33-33-14.775-33-33-33Z" clip-rule="evenodd" fill="#012F34" fill-rule="evenodd" mask="url(#a)"/><path fill="#79C8C7" d="M358 43h-43V0h43z"/><path d="M358 43h-43V0h43z"/><mask id="b" fill="#fff"><path d="M233.514 0c-55.229 0-100 44.772-100 100 0 55.229 44.771 100 100 100 55.228 0 100-44.771 100-100 0-55.228-44.772-100-100-100Zm0 67c-18.226 0-33 14.775-33 33s14.774 33 33 33c18.225 0 33-14.775 33-33s-14.775-33-33-33Z" clip-rule="evenodd" fill-rule="evenodd"/></mask><path d="M233.514 0c-55.229 0-100 44.772-100 100 0 55.229 44.771 100 100 100 55.228 0 100-44.771 100-100 0-55.228-44.772-100-100-100Zm0 67c-18.226 0-33 14.775-33 33s14.774 33 33 33c18.225 0 33-14.775 33-33s-14.775-33-33-33Z" clip-rule="evenodd" fill="#F67E7E" fill-rule="evenodd" mask="url(#b)"/><mask id="c" fill="#fff"><path d="M100 0H0v4h100V0Zm0 8H0v4h100V8ZM0 16h100v4H0v-4Zm100 8H0v4h100v-4ZM0 32h100v4H0v-4Zm100 8H0v4h100v-4Z" clip-rule="evenodd" fill-rule="evenodd"/></mask><path d="M100 0H0v4h100V0Zm0 8H0v4h100V8ZM0 16h100v4H0v-4Zm100 8H0v4h100v-4ZM0 32h100v4H0v-4Zm100 8H0v4h100v-4Z" clip-rule="evenodd" fill="#79C8C7" fill-rule="evenodd" mask="url(#c)"/></svg>