<svg width="159.947" height="40" fill="none" xmlns="http://www.w3.org/2000/svg"><path d="M6.214 18.237V29.53H0V8.192h6.214v3.103c.508-1.101 1.235-1.972 2.18-2.612q.87-.522 1.812-.746.709-.17 1.458-.17 3.226 0 5.09 1.594.996.851 1.604 2.157 1.428-2.369 3.494-3.259 1.244-.536 2.72-.536 2.913 0 4.805 1.39.656.483 1.19 1.133 2.071 2.522 2.071 7.165v12.12H26.49V18.147c0-1.31-.313-2.343-.938-3.102q-.41-.476-.926-.753-.72-.386-1.646-.386-1.035 0-1.803.453-.413.244-.748.619c-.64.714-.96 1.8-.96 3.259V29.53h-6.213V18.013c-.058-1.28-.4-2.284-1.025-3.013q-.412-.47-.93-.738-.685-.356-1.555-.356-.887 0-1.597.354-.512.256-.932.695-1.003 1.05-1.003 3.282ZM57.498 8.192 44.635 40h-6.563l5.015-12.656-8.045-19.152h6.606l4.6 12.098 4.644-12.098h6.606Zm10.82 5.022v16.317h-6.17V13.214h-3.794V8.192h3.793V0h6.17v8.192H72.7v5.022h-4.383Zm26.974 12.433c-1.933 2.902-5.109 4.346-9.527 4.33-3.067 0-5.654-1.034-7.762-3.102-2.078-2.098-3.118-4.792-3.118-8.08 0-3.289 1.04-5.96 3.118-8.014 2.079-2.053 4.651-3.073 7.718-3.058q2.694 0 4.856 1.072 1.532.758 2.797 2.053c2.035 2.083 3.06 4.792 3.074 8.125 0 .03-.03.685-.087 1.965H81.077c.116 1.13.683 2.008 1.7 2.633 1.018.625 2.166.938 3.445.938 1.992 0 3.51-.67 4.557-2.009l4.513 3.147Zm-5.101-8.683h-9.027c.233-1.16.814-2.068 1.745-2.723.9-.655 1.875-.967 2.921-.937a4.988 4.988 0 0 1 2.856.982c.858.625 1.36 1.518 1.505 2.678Zm22.897 12.255c-1.177.506-2.303.744-3.379.714-2.863 0-5.349-1.027-7.456-3.08q-1.01-.984-1.697-2.156-1.465-2.5-1.465-5.858c0-3.288 1.09-5.96 3.271-8.013 2.18-2.054 4.629-3.088 7.347-3.103q1.657 0 3.401.737c1.163.49 2.057 1.19 2.682 2.098V8.192h6.148v21.34h-6.148v-2.434c-.625.908-1.526 1.615-2.704 2.12Zm-2.376-5.313c-1.41 0-2.624-.476-3.641-1.428-1.047-.953-1.57-2.158-1.57-3.616 0-1.444.523-2.657 1.57-3.639 1.134-.967 2.376-1.45 3.728-1.45q.959 0 1.795.319.934.356 1.715 1.109c.989.952 1.483 2.172 1.483 3.66 0 1.489-.494 2.701-1.483 3.639-.988.938-2.187 1.406-3.597 1.406Zm22.81-5.67v11.295h-6.213V8.192h6.213v3.103c.509-1.101 1.236-1.972 2.181-2.612a6.249 6.249 0 0 1 3.27-.915c3.299 0 5.531 1.25 6.693 3.75 1.527-2.53 3.598-3.795 6.214-3.795 2.616 0 4.615.841 5.996 2.522 1.38 1.682 2.071 4.07 2.071 7.166v12.12h-6.148V18.147c0-1.31-.313-2.343-.938-3.102q-.41-.476-.926-.753-.72-.386-1.647-.386c-1.061 0-1.911.357-2.55 1.072q-.96 1.071-.96 3.259V29.53h-6.213V18.013q-.088-1.92-1.025-3.013-.413-.47-.93-.738-.686-.356-1.556-.356c-1.017 0-1.86.35-2.529 1.05-.668.699-1.003 1.793-1.003 3.28Z" clip-rule="evenodd" fill="#FFF" fill-rule="evenodd"/></svg>