<svg width="56" height="56" fill="none" xmlns="http://www.w3.org/2000/svg"><circle cx="28" cy="28" r="28" fill="#79C8C7"/><circle cx="28" cy="28" r="28"/><mask id="a" fill="#fff"><path d="m35.071 23.757-2.828-2.828L28 25.172l-4.243-4.243-2.828 2.828L25.172 28l-4.243 4.243 2.828 2.828L28 30.828l4.243 4.243 2.828-2.828L30.828 28l4.243-4.243Z" clip-rule="evenodd" fill-rule="evenodd"/></mask><path d="m35.071 23.757-2.828-2.828L28 25.172l-4.243-4.243-2.828 2.828L25.172 28l-4.243 4.243 2.828 2.828L28 30.828l4.243 4.243 2.828-2.828L30.828 28l4.243-4.243Z" clip-rule="evenodd" fill="#012F34" fill-rule="evenodd" mask="url(#a)"/></svg>