<svg width="72" height="72" fill="none" xmlns="http://www.w3.org/2000/svg"><circle cx="44" cy="44" r="28" fill="#2C6269"/><circle cx="44" cy="44" r="28"/><path d="M33.906 53.813A2.19 2.19 0 0 1 31.72 56H24.28a2.19 2.19 0 0 1-2.187-2.188v-3.265a23.104 23.104 0 0 1-5.859-2.43l-2.31 2.312a2.19 2.19 0 0 1-3.094 0l-5.26-5.26a2.19 2.19 0 0 1 0-3.093l2.311-2.311a23.106 23.106 0 0 1-2.43-5.859H2.189A2.19 2.19 0 0 1 0 31.72V24.28a2.19 2.19 0 0 1 2.188-2.187h3.258a23.11 23.11 0 0 1 2.426-5.869l-2.3-2.301a2.19 2.19 0 0 1 0-3.093l5.259-5.26a2.19 2.19 0 0 1 3.093 0l2.293 2.294a23.104 23.104 0 0 1 5.877-2.44V2.188A2.19 2.19 0 0 1 24.28 0h7.438a2.19 2.19 0 0 1 2.187 2.188v3.23a23.119 23.119 0 0 1 5.886 2.436l2.284-2.283a2.19 2.19 0 0 1 3.093 0l5.26 5.26a2.19 2.19 0 0 1 0 3.093l-2.284 2.284a23.112 23.112 0 0 1 2.437 5.886h3.23A2.19 2.19 0 0 1 56 24.28v7.438a2.19 2.19 0 0 1-2.188 2.187h-3.237a23.124 23.124 0 0 1-2.44 5.877l2.293 2.293a2.19 2.19 0 0 1 0 3.093l-5.259 5.26a2.19 2.19 0 0 1-3.093 0l-2.301-2.301a23.117 23.117 0 0 1-5.869 2.426v3.258Zm-17.246-8a1.093 1.093 0 0 0-1.362.148l-2.92 2.921-5.26-5.26 2.92-2.92c.364-.362.425-.929.15-1.362a20.947 20.947 0 0 1-2.806-6.764 1.094 1.094 0 0 0-1.068-.857H2.187V24.28h4.12c.514 0 .959-.357 1.069-.858.53-2.411 1.473-4.69 2.801-6.775a1.093 1.093 0 0 0-.15-1.36l-2.909-2.91 5.26-5.26 2.903 2.903c.363.364.93.425 1.362.148a20.955 20.955 0 0 1 6.781-2.815c.5-.11.857-.555.857-1.068V2.188h7.438V6.28c0 .514.357.958.858 1.068a20.953 20.953 0 0 1 6.791 2.811c.433.276 1 .214 1.362-.148l2.893-2.893 5.259 5.26-2.893 2.892c-.362.363-.424.929-.148 1.362a20.947 20.947 0 0 1 2.81 6.79c.111.502.555.86 1.069.86h4.093v7.437h-4.1c-.512 0-.956.356-1.067.857a20.954 20.954 0 0 1-2.815 6.78c-.277.433-.216 1 .147 1.363l2.904 2.904-5.26 5.259-2.909-2.91a1.094 1.094 0 0 0-1.361-.149 20.958 20.958 0 0 1-6.774 2.801c-.502.11-.86.555-.86 1.068v4.12h-7.437v-4.126c0-.513-.356-.957-.857-1.068a20.937 20.937 0 0 1-6.764-2.805Zm.048-6.521A15.921 15.921 0 0 0 28 43.962c4.09 0 8.178-1.557 11.292-4.67a15.95 15.95 0 0 0 2.998-18.428 1.094 1.094 0 1 0-1.957.978 13.765 13.765 0 0 1-2.588 15.903A13.735 13.735 0 0 1 28 41.775a13.742 13.742 0 0 1-9.745-4.03c-5.373-5.373-5.373-14.117 0-19.49 4.348-4.347 11.125-5.286 16.481-2.282a1.093 1.093 0 1 0 1.07-1.908 16.079 16.079 0 0 0-9.89-1.898 15.822 15.822 0 0 0-9.208 4.541c-6.226 6.227-6.226 16.357 0 22.584Zm22.05-20.478a1.1 1.1 0 0 1-.775-.321 1.099 1.099 0 0 1 0-1.546c.203-.204.485-.32.774-.32.288 0 .57.116.774.32.203.203.32.485.32.773a1.1 1.1 0 0 1-.32.773 1.1 1.1 0 0 1-.774.32ZM25.682 35.737a1.094 1.094 0 0 0 1.547 0l10.004-10.004a1.094 1.094 0 0 0 0-1.547l-3.923-3.923a1.093 1.093 0 0 0-1.547 0l-5.308 5.307-2.22-2.22a1.094 1.094 0 0 0-1.547 0l-3.923 3.923a1.093 1.093 0 0 0 0 1.547l6.917 6.917Zm-4.597-7.69 5.37 5.37 8.458-8.457-2.377-2.377-5.307 5.308a1.095 1.095 0 0 1-1.547 0l-2.22-2.22-2.377 2.376Z" clip-rule="evenodd" fill="#79C8C7" fill-rule="evenodd"/></svg>