<svg width="72" height="72" fill="none" xmlns="http://www.w3.org/2000/svg"><circle cx="44" cy="44" r="28" fill="#2C6269"/><circle cx="44" cy="44" r="28"/><path d="M14.496 0h14c5.66 0 10.267 4.606 10.267 10.267v4.666a3.737 3.737 0 0 1 3.733 3.734 3.737 3.737 0 0 1-3.733 3.733h-.213a11.184 11.184 0 0 1-5.388 8.701v1.566h2.95a4.522 4.522 0 0 1 4.517 4.517v.047c0 .054 0 .108-.003.162l.122.008c4.216.561 7.348 4.142 7.348 8.332V56h-1.867V45.733a6.553 6.553 0 0 0-5.668-6.475l-.405-.026a4.545 4.545 0 0 1-.28.485l-4.847 7.234V56h-1.867V42.956a9.389 9.389 0 0 1-5.6 1.844 9.39 9.39 0 0 1-5.6-1.843V56h-1.866v-9.05l-4.845-7.23a4.548 4.548 0 0 1-.282-.487l-.467.03c-3.17.426-5.606 3.21-5.606 6.47V56H7.029V45.733c0-4.19 3.132-7.77 7.287-8.326l.182-.012a4.75 4.75 0 0 1-.003-.22 4.52 4.52 0 0 1 4.517-4.508h2.95V31.13a10.994 10.994 0 0 1-5.372-8.54l-.014-.191h-.214a3.737 3.737 0 0 1-3.733-3.733 3.737 3.737 0 0 1 3.733-3.734h.002l-.002-4.364a6.542 6.542 0 0 1-3.733-5.902c0-.516.418-.934.934-.934h.5a3.706 3.706 0 0 1-.5-1.866V.933c0-.515.418-.933.933-.933Zm22.4 11.2h-1.767c.271 1.256 1.054 2.216 1.768 2.861l-.001-2.861Zm-3.666 0H21.895c-.414 2.84-2.638 4.552-3.666 5.203V19.6l.221 2.84c.023.267.06.54.107.81.883 4.971 5.646 8.297 10.616 7.415a9.328 9.328 0 0 0 7.529-8.593l.197-2.545-.001-3.123c-1.028-.65-3.254-2.363-3.669-5.204Zm-13.234 0h-.833c-.317 0-.629-.023-.934-.067v2.927c.713-.645 1.496-1.604 1.767-2.86ZM14.59 5.6a4.675 4.675 0 0 0 4.573 3.733h17.68c-.465-4.194-4.03-7.466-8.347-7.466H15.429c0 1.03.837 1.866 1.867 1.866a.934.934 0 0 1 0 1.867H14.59Zm24.173 11.2v2.8l-.072.933h.072c1.029 0 1.866-.837 1.866-1.866 0-1.03-.837-1.867-1.866-1.867ZM31.296 32c-.572.213-1.168.38-1.783.5a10.97 10.97 0 0 1-5.684-.486v3.678a2.797 2.797 0 0 1-1.867 2.634v2.123a7.53 7.53 0 0 0 5.6 2.484 7.525 7.525 0 0 0 5.6-2.485v-2.123a2.798 2.798 0 0 1-1.866-2.64V32ZM16.432 20.533l-.067-.861V16.8h-.003c-1.029 0-1.866.837-1.866 1.867s.837 1.866 1.866 1.866h.07Zm3.664-2.8a1.867 1.867 0 1 1 3.733 0 1.867 1.867 0 0 1-3.733 0Zm11.2 0a1.867 1.867 0 1 1 3.733 0 1.867 1.867 0 0 1-3.733 0Zm-2.867-.586-1.355 3.386h1.422V22.4h-2.8a.934.934 0 0 1-.867-1.28l1.866-4.666 1.734.693Zm-2.574 7.12a5.414 5.414 0 0 0 3.848-1.595l1.32 1.321a7.27 7.27 0 0 1-5.168 2.14h-.16v-1.866h.16Zm-3.893 11.412v-1.146h-2.949a2.654 2.654 0 0 0-2.65 2.65v.03c0 .53.152 1.036.441 1.47l3.292 4.913v-6.057c0-.517.418-.934.933-.934h.159a.933.933 0 0 0 .774-.92v-.007Zm11.975.926h.159c.516 0 .933.417.933.934v6.058l3.294-4.916c.287-.432.44-.936.44-1.46v-.028c0-1.47-1.19-2.66-2.651-2.66h-2.95v1.147c0 .462.33.85.775.925ZM18.229 46.667c.515 0 .934.417.934.933v5.6a.933.933 0 1 1-1.867 0v-5.6c0-.516.418-.933.933-.933Zm17.733.933a.932.932 0 1 1 1.867 0v5.6a.932.932 0 1 1-1.867 0v-5.6Z" clip-rule="evenodd" fill="#79C8C7" fill-rule="evenodd"/><path fill="none" d="M0 0h56v56H0z"/><path d="M0 0h56v56H0z"/></svg>