<svg width="72" height="72" fill="none" xmlns="http://www.w3.org/2000/svg"><circle cx="44" cy="44" r="28" fill="#2C6269"/><circle cx="44" cy="44" r="28"/><path d="M49 0a4.671 4.671 0 0 0-4.667 4.667c0 .864.236 1.674.648 2.37l-7.611 7.61a4.66 4.66 0 0 0-6.004 1.095l-5.7-1.626V14A4.671 4.671 0 0 0 21 9.333a4.671 4.671 0 0 0-4.26 6.573l-7.274 5.8A4.64 4.64 0 0 0 7 21a4.671 4.671 0 0 0-4.667 4.667A4.671 4.671 0 0 0 7 30.333a4.671 4.671 0 0 0 4.667-4.666 4.64 4.64 0 0 0-.586-2.262l7.117-5.675c.78.588 1.751.937 2.802.937a4.669 4.669 0 0 0 4.024-2.306l5.373 1.532A4.671 4.671 0 0 0 35 23.333a4.671 4.671 0 0 0 4.667-4.666 4.64 4.64 0 0 0-.648-2.37l7.611-7.61a4.639 4.639 0 0 0 2.37.646 4.671 4.671 0 0 0 4.667-4.666A4.671 4.671 0 0 0 49 0Zm0 7c-.62 0-1.185-.243-1.603-.639a.995.995 0 0 0-.091-.092 2.325 2.325 0 0 1-.64-1.602A2.336 2.336 0 0 1 49 2.333a2.336 2.336 0 0 1 2.333 2.334A2.336 2.336 0 0 1 49 7Zm-28 9.333c-.712 0-1.35-.32-1.778-.823a1.387 1.387 0 0 0-.088-.111 2.322 2.322 0 0 1-.467-1.4A2.336 2.336 0 0 1 21 11.668 2.336 2.336 0 0 1 23.333 14 2.336 2.336 0 0 1 21 16.333Zm-12.387 7.65a2.326 2.326 0 0 1 .72 1.685A2.336 2.336 0 0 1 7 27.999a2.336 2.336 0 0 1-2.333-2.333A2.336 2.336 0 0 1 7 23.333c.626 0 1.194.248 1.613.65ZM35 21a2.336 2.336 0 0 1-2.333-2.333A2.336 2.336 0 0 1 35 16.333a2.336 2.336 0 0 1 2.333 2.334A2.336 2.336 0 0 1 35 21Zm17.5-2.333h-7c-.644 0-1.167.522-1.167 1.166v33.834h-4.666V33.833c0-.644-.523-1.166-1.167-1.166h-7c-.644 0-1.167.523-1.167 1.166v19.834h-4.666v-24.5c0-.644-.523-1.167-1.167-1.167h-7c-.644 0-1.167.523-1.167 1.167v24.5h-4.666V40.833c0-.644-.523-1.166-1.167-1.166h-7c-.644 0-1.167.523-1.167 1.166v12.834H1.167a1.167 1.167 0 0 0 0 2.333h53.666a1.167 1.167 0 0 0 0-2.333h-1.166V19.833c0-.644-.523-1.166-1.167-1.166Zm-1.167 35h-4.666V21h4.666v32.667Zm-28 0h-4.666V30.333h4.666v23.334Zm9.334 0V35h4.666v18.667h-4.666Zm-23.334 0H4.667V42h4.666v11.667Z" clip-rule="evenodd" fill="#79C8C7" fill-rule="evenodd"/></svg>